<svg width="29" height="29" viewBox="0 0 29 29" fill="none" xmlns="http://www.w3.org/2000/svg">
<path d="M27.3889 0H1.61111C0.721319 0 0 0.721319 0 1.61111V27.3889C0 28.2787 0.721319 29 1.61111 29H27.3889C28.2787 29 29 28.2787 29 27.3889V1.61111C29 0.721319 28.2787 0 27.3889 0Z" fill="#117EB8"/>
<path fill-rule="evenodd" clip-rule="evenodd" d="M5.29209 11.2166H9.16802V23.6875H5.29209V11.2166ZM7.23066 5.01749C8.47001 5.01749 9.47695 6.02444 9.47695 7.26378C9.47695 8.50434 8.47001 9.51169 7.23066 9.51169C6.93199 9.51734 6.63518 9.4634 6.3576 9.35301C6.08002 9.24263 5.82723 9.07801 5.614 8.86879C5.40078 8.65956 5.23141 8.40993 5.11579 8.13449C5.00016 7.85905 4.94061 7.56332 4.94061 7.26459C4.94061 6.96586 5.00016 6.67013 5.11579 6.39469C5.23141 6.11925 5.40078 5.86962 5.614 5.6604C5.82723 5.45117 6.08002 5.28656 6.3576 5.17617C6.63518 5.06578 6.93199 5.01184 7.23066 5.01749ZM11.5992 11.2162H15.3168V12.9204H15.3684C15.886 11.94 17.1503 10.9065 19.0357 10.9065C22.9603 10.9065 23.6853 13.4895 23.6853 16.8475V23.6875H19.8118V17.6228C19.8118 16.1769 19.7852 14.3164 17.7979 14.3164C15.7812 14.3164 15.4715 15.8917 15.4715 17.5185V23.6875H11.5988V11.2166L11.5992 11.2162Z" fill="white"/>
</svg>
