<svg width="30" height="29" viewBox="0 0 30 29" fill="none" xmlns="http://www.w3.org/2000/svg">
<path d="M22.89 0H6.98C3.40119 0 0.5 2.90119 0.5 6.48V22.39C0.5 25.9688 3.40119 28.87 6.98 28.87H22.89C26.4688 28.87 29.37 25.9688 29.37 22.39V6.48C29.37 2.90119 26.4688 0 22.89 0Z" fill="url(#paint0_linear_11_52)"/>
<path d="M10.5 5H19.5C19.7 5.1 20 5.1 20.2 5.2C21.0776 5.34223 21.8982 5.72642 22.5695 6.30938C23.2408 6.89234 23.7362 7.65096 24 8.5C24.1477 8.98927 24.2481 9.49157 24.3 10V18.8C24.157 19.9153 23.7452 20.9791 23.1 21.9C22.5464 22.5413 21.8525 23.0464 21.072 23.3759C20.2916 23.7054 19.4456 23.8506 18.6 23.8H11.1C9.76153 23.865 8.44553 23.4382 7.39998 22.6C6.76418 22.0507 6.26244 21.3632 5.93313 20.5902C5.60382 19.8172 5.45566 18.9791 5.49998 18.14V11.14C5.48346 10.6379 5.51696 10.1354 5.59998 9.64C5.70096 8.61479 6.12249 7.64748 6.80467 6.87554C7.48685 6.1036 8.39497 5.5663 9.39998 5.34L10.5 5ZM7.39998 14.5V18.4C7.35735 18.8966 7.42379 19.3966 7.59465 19.8649C7.76552 20.3331 8.03668 20.7584 8.38914 21.1108C8.74161 21.4633 9.16686 21.7345 9.63513 21.9053C10.1034 22.0762 10.6033 22.1426 11.1 22.1C13.7 22.2 16.3 22.2 18.9 22.1C21.2 22.1 22.5 20.7 22.6 18.4C22.7 15.8 22.7 13.2 22.6 10.6C22.6259 10.1073 22.5479 9.61462 22.3712 9.15398C22.1944 8.69334 21.9227 8.27501 21.5739 7.92613C21.225 7.57724 20.8066 7.3056 20.346 7.12883C19.8854 6.95205 19.3927 6.87409 18.9 6.9C16.3 6.8 13.7 6.8 11.1 6.9C10.6033 6.85736 10.1034 6.9238 9.63513 7.09467C9.16686 7.26553 8.74161 7.53669 8.38914 7.88916C8.03668 8.24163 7.76552 8.66688 7.59465 9.13515C7.42379 9.60341 7.35735 10.1034 7.39998 10.6V14.5Z" fill="white"/>
<path d="M10.14 14.5399C10.1426 13.2411 10.6597 11.9963 11.578 11.078C12.4964 10.1596 13.7412 9.64254 15.04 9.63989C16.3315 9.66548 17.563 10.1899 18.4765 11.1034C19.3899 12.0168 19.9144 13.2483 19.94 14.5399C19.9373 15.8386 19.4202 17.0834 18.5019 18.0018C17.5835 18.9202 16.3387 19.4373 15.04 19.4399C13.7484 19.4143 12.5169 18.8898 11.6034 17.9764C10.69 17.063 10.1655 15.8314 10.14 14.5399ZM15.04 11.4399C14.4326 11.43 13.8361 11.6017 13.3269 11.933C12.8178 12.2643 12.4191 12.7401 12.1821 13.2994C11.9451 13.8587 11.8805 14.4761 11.9966 15.0723C12.1127 15.6686 12.4041 16.2166 12.8337 16.6462C13.2632 17.0757 13.8112 17.3672 14.4075 17.4833C15.0038 17.5994 15.6211 17.5348 16.1804 17.2977C16.7397 17.0607 17.2155 16.6621 17.5468 16.1529C17.8781 15.6438 18.0498 15.0473 18.04 14.4399C18.04 13.6442 17.7239 12.8812 17.1613 12.3186C16.5987 11.756 15.8356 11.4399 15.04 11.4399Z" fill="white"/>
<path d="M18.84 9.43997C18.8344 9.28088 18.8616 9.12234 18.9199 8.97422C18.9783 8.82611 19.0665 8.69158 19.179 8.57901C19.2916 8.46645 19.4261 8.37826 19.5742 8.31993C19.7223 8.2616 19.8809 8.23439 20.04 8.23997C20.3513 8.26103 20.6444 8.39422 20.8651 8.61486C21.0857 8.83551 21.2189 9.12865 21.24 9.43997C21.24 9.75823 21.1136 10.0635 20.8885 10.2885C20.6635 10.5135 20.3582 10.64 20.04 10.64C19.7217 10.64 19.4165 10.5135 19.1914 10.2885C18.9664 10.0635 18.84 9.75823 18.84 9.43997Z" fill="white"/>
<defs>
<linearGradient id="paint0_linear_11_52" x1="-1.34" y1="30.47" x2="32.66" y2="-3.03" gradientUnits="userSpaceOnUse">
<stop stop-color="#FED576"/>
<stop offset="0.26" stop-color="#F47133"/>
<stop offset="0.61" stop-color="#BC3081"/>
<stop offset="1" stop-color="#4C63D2"/>
</linearGradient>
</defs>
</svg>
